<?xml version="1.0" encoding="UTF-8"?>
<svg id="Layer_2" data-name="Layer 2" xmlns="http://www.w3.org/2000/svg" viewBox="0 0 1608.03 898.59">
  <defs>
    <style>
      .cls-1 {
        fill: #F58202;
      }
    </style>
  </defs>
  <g id="Layer_1" data-name="Layer 1">
    <g>
      <path class="cls-1" d="M883.57,575.11c-5.08,39.77-10.17,79.54-15.32,119.85-19.11,1.96-37.89,3.88-57.16,5.85,7.51-64.46,14.93-128.2,22.44-192.68-20.91,7.97-40.34,8.38-58.66-5.42,1.93-12.42,3.87-24.98,5.91-38.09,2.13.61,3.86,1,5.52,1.59,9.69,3.48,19.61,5.38,30.07,4.99,7.71-.29,14.71-2.3,20.92-6.5,1.91-1.29,3.72-2.13,6.01-2.36,8.86-.88,17.71-1.84,26.7-2.79,25.64,36.75,51.09,73.23,76.99,110.36,1.59-1.84,2.87-3.25,4.06-4.72,32.14-39.79,64.31-79.57,96.36-119.43,2.77-3.44,5.6-5.38,10.47-5.64,10.03-.53,20-1.92,30-2.93,1.81-.18,3.65-.23,5.99-.37-9.49,79.43-18.92,158.45-28.4,237.86-19.12,1.96-37.76,3.88-57.15,5.87,5.02-39.99,9.97-79.4,15.06-119.88-1.72,1.61-2.79,2.47-3.68,3.48-20.84,23.41-41.69,46.8-62.42,70.3-1.83,2.08-3.8,3.31-6.49,3.59-5.18.54-10.36,1-15.94,1.53-16.73-21.58-33.48-43.18-50.22-64.78-.34.11-.69.21-1.03.32Z"/>
      <path class="cls-1" d="M472.64,720.89c-6.25,57.67-12.38,114.32-18.58,171.63-18.68,2-37.29,4-56.66,6.07,0-1.99-.14-3.51.02-4.99,1.57-14.25,3.16-28.5,4.81-42.74,1.69-14.59,3.44-29.18,5.16-43.77,2.92-24.79,5.85-49.58,8.74-74.37,1.96-16.88,3.83-33.77,5.79-50.65,2.53-21.8,5.13-43.6,7.68-65.4.96-8.24,1.85-16.49,2.82-25.18,18.96-1.95,37.59-3.86,56.71-5.83v6.63c1.66-1,2.74-1.62,3.78-2.29,15.92-10.12,33.57-14.93,52.52-12.95,26.47,2.77,43.67,17.23,51.36,41.21,6.32,19.73,4.73,39.56-1.97,59.05-8,23.29-23.59,40.55-46.92,50.81-16.61,7.3-34.2,9.71-52.33,5.12-6.58-1.67-12.51-4.54-17.82-8.58-1.41-1.07-2.84-2.12-5.09-3.78ZM543.16,652.65c0-1.95.15-3.91-.02-5.84-1.1-12.03-10.59-22.67-25.58-22.46-9.95.13-18.17,3.87-24.81,10.51-10.13,10.14-14.34,22.28-11.03,36.1,2.32,9.69,8.58,16.26,19.06,18.83,7.03,1.73,13.8.85,20.13-2.02,15.45-7,21.87-19.4,22.25-35.11Z"/>
      <path class="cls-1" d="M20.2,719.5c20.35-5.88,40.09-11.58,60.15-17.37,1.01,2.44,1.88,4.54,2.75,6.64,6.69,16.15,20.29,23.16,38.05,21.84,6.21-.46,12.54-1.97,18.34-4.14,7.75-2.9,13.49-8.12,15.01-16.52,1.84-10.15-3.02-15.63-9.25-17.81-6.79-2.38-13.84-4.15-20.87-5.81-13.91-3.29-28.12-5.49-41.57-10.46-12.21-4.51-23.16-10.59-30.79-21.13-4.64-6.4-7.34-13.48-8.64-21.1-.35-2.07-.84-4.12-1.34-6.53-15.6,2.25-29.71-.38-42.05-10.21,1.88-12.66,3.73-25.07,5.69-38.19,2.01.65,3.68,1.19,5.35,1.72,9.78,3.09,19.68,5.55,30.12,4.9,3.15-.2,6.36-.46,9.37-1.27,1.99-.54,4.18-1.74,5.42-3.27,14.24-17.46,33.33-27.48,55.46-32.74,14.35-3.42,29-5.09,43.79-4.13,21.84,1.43,41.62,7.76,57.19,23.26,8.21,8.17,15.56,21.37,17.29,31.65-18.83,5.69-37.75,11.4-56.95,17.2-.81-2.2-1.46-4.02-2.14-5.83-4.86-12.9-16.73-20.72-31.17-20.99-7.65-.14-14.88.98-21.52,4.62-8.08,4.43-12.49,10.87-12.01,20.05.27,5.25,2.6,9.33,7.3,11.78,3.54,1.85,7.45,3.27,11.37,4.26,16.02,4.05,32.18,7.62,48.15,11.84,12.8,3.39,24.06,9.48,32.74,19.35,5.77,6.56,9.07,14.17,10.82,22.46,4.76,22.54-.04,42.97-15.59,60.72-9.61,10.96-21.88,18.67-35.84,23.84-21.16,7.83-43.18,11.37-65.79,9.36-23.56-2.09-45.24-9.04-61.96-26.11-8.72-8.9-14.25-19.35-16.9-31.88Z"/>
      <path class="cls-1" d="M724.73,709.8v-6.42c-1.27.65-2.37,1.08-3.31,1.71-13.53,9.1-28.91,13.67-45.16,13.74-28.4.12-50.3-13.57-58.76-40.56-9.28-29.61-4.36-58.09,14.2-83.63,15.02-20.66,36.15-32.02,62.78-34.32,12.13-1.05,23.37.78,34.09,5.9,2.8,1.34,5.28,3.29,7.89,4.99,1.33.87,2.62,1.81,4.49,3.1.7-5.1,1.31-9.58,2.02-14.78,18.74-1.93,37.54-3.86,57.25-5.89-6.12,50.29-12.61,100.04-18.92,150.3-18.8,1.94-37.42,3.87-56.58,5.85ZM706.08,605.26c-5.43-.43-10.79.86-15.78,3.55-17.37,9.33-24.19,30.82-17.88,47.03,4.38,11.26,16.41,17.27,28.82,14.95,20.74-3.87,34.5-23.63,31.55-43.68-1.68-11.41-12.6-23.03-26.71-21.85Z"/>
      <path class="cls-1" d="M247.5,611.08c18.71-1.92,37.35-3.83,56.76-5.82-.46,4.54-.77,8.51-1.27,12.46-2.15,17.03-4.44,34.05-6.51,51.09-.98,8.07-1.84,16.18-2.25,24.29-.31,6.13,2.64,11.08,8.48,13.92,4.85,2.36,10.1,2.13,15.28.82,9.85-2.47,15.74-9.11,19.76-17.45,3.61-7.49,4.75-15.57,5.74-23.68,2.59-21.26,5.28-42.5,7.95-63.75.09-.68.34-1.35.65-2.56,18.53-1.91,37.14-3.83,56.65-5.84-6.34,50.38-12.6,100.11-18.88,150.07-19.11,2.04-37.55,4.02-56.67,6.06.31-4.31.56-7.93.89-12.58-1.83,1.65-3.12,2.78-4.36,3.94-17.86,16.7-39.27,21.11-62.9,15.12-14.24-3.61-23.48-13.32-28.43-26.47-4.33-11.5-3.51-23.33-1.99-35.17,1.83-14.22,3.63-28.44,5.41-42.66,1.56-12.47,3.04-24.95,4.6-37.41.17-1.38.68-2.73,1.1-4.35Z"/>
      <path class="cls-1" d="M1508.91,634.35c-17.64.12-33.91-3.98-48.19-14.19-14.51-10.38-22.45-24.42-24.73-41.28-5.96-44.04,23.84-83.57,64.62-97.2,12.29-4.11,24.87-6.38,37.82-5.84,21.98.91,41.14,8.04,55.3,24.81,7.76,9.19,12.21,19.8,13.63,31.5,3.18,26.13-5.02,48.97-22.67,68.85-18.51,20.84-47.09,33.24-75.78,33.36ZM1526.45,521.5c-4.41,1.24-9,2.07-13.19,3.79-17.08,7.01-26.03,25.88-22.18,43.24,2.98,13.45,17.18,21.95,31.27,19.15,21.09-4.19,34.38-25.73,29.83-45.5-2.77-12.04-13-19.86-25.72-20.68Z"/>
      <path class="cls-1" d="M1269.51,576.37c-.98,23.45-9.23,43.36-25.63,60.21-12.31,12.65-27.05,21.73-44.34,26.7-20.66,5.94-41.38,6.69-61.8-1.32-22.76-8.93-36.15-25.21-40.12-48.03-4.09-23.51,2.33-45.08,16.59-64.34,15.59-21.06,37.09-33.85,63.76-38.8,16.08-2.98,31.93-2.38,47.27,3.08,23.69,8.43,38.32,24.41,42.72,48.32.89,4.86,1.09,9.83,1.54,14.19ZM1214.28,586.65c.07-13.49-3.66-21.19-10.75-26.26-9.54-6.82-22.89-6.56-33.96.74-13.35,8.81-18.97,21.51-17.9,36.72.75,10.73,8.61,19.83,18.95,22.66,7.71,2.11,15.24,1.02,22.15-2.59,14.35-7.49,20.99-19.46,21.51-31.29Z"/>
      <path class="cls-1" d="M1421.95,490.27c-1.82,14.66-3.53,28.48-5.32,42.99-16.7,1.82-33.24,3.61-49.97,5.43-1.18,8.71-2.28,16.94-3.4,25.16-.69,5.09-1.58,10.16-2.04,15.26-.36,4.04-.62,8.17-.16,12.18.69,5.94,4.75,8.9,11.07,8.97,5.75.06,10.96-1.9,16.15-3.87,2.92-1.11,5.77-2.39,9.28-3.86,2.65,14.08,5.22,27.74,7.86,41.73-2.29,1.34-4.39,2.81-6.7,3.87-17.03,7.85-34.98,12.13-53.97,11.73-10.32-.22-19.85-3.08-27.93-9.44-9.02-7.1-13.04-16.6-14.14-27.4-.94-9.24.31-18.38,1.58-27.52,1.84-13.32,3.53-26.67,5.38-40.72-8.51-.06-16.48,1.89-25.26,2.08.92-14.2,3.4-28.07,4.98-42.74,8.69-1.07,17.26-2.13,26.23-3.23.85-5.74,1.72-11.3,2.49-16.88,1.19-8.6,2.36-17.2,3.42-25.81.28-2.27.93-3.9,3.41-4.88,17.39-6.87,34.72-13.85,52.08-20.78.66-.26,1.39-.35,2.88-.71-2.7,21.24-5.35,42.02-8.1,63.58,16.71-1.71,32.86-3.37,50.17-5.15Z"/>
      <path class="cls-1" d="M1174.01,405.92c0,16.74-1.23,33.24-3.6,49.31-.76,5.07-1.61,10.05-2.56,15.03-2.47,7.59-5.26,15.08-7.68,22.66-1.42,4.36-4.08,7.21-8.49,9.34-8.06,3.89-15.84,8.3-23.47,12.9-11,6.73-18.54,16.69-26.03,26.6-.33.43-.38,1.19-.81,1.42-1.14.66-2.66,1.75-3.6,1.52-.95-.28-1.99-2.13-1.94-3.22.38-6.21,1.04-12.47,1.71-18.68,1.28-11.76,2.75-23.47,4.03-35.23,1.9-17.07,3.75-34.14,5.55-51.21.33-2.99.38-6.02.57-9.34-1.61-.14-2.89-.43-4.13-.43-17.35.24-34.71.62-52.06.76-2.89,0-4.36,1.42-5.93,3.27-17.35,20.77-34.8,41.49-52.16,62.26-12,14.27-23.94,28.59-35.89,42.91-1.71,2.09-3.18,4.36-4.69,6.64-1.9,2.75-3.6,2.85-5.5.14-5.88-8.53-11.71-17.12-17.64-25.65-15.36-21.91-30.82-43.76-46.09-65.76-2.09-2.99-4.27-4.41-8.2-4.22-10.91.47-21.86.52-32.76.95-1.9.1-3.89,1-5.64,1.9-5.64,2.89-11.24,5.83-17.69,6.92-6.35,1.09-12.33-.28-18.3-1.99-8.35-2.37-16.69-4.65-25.51-3.41-2.23.28-4.46.66-7.02,1.04-2.89,18.92-5.74,37.6-8.58,56.28,13.13,10.67,28.26,15.27,44.95,15.79,3.22.09,6.4-.14,9.63-.05,3.13.1,4.41,1.52,3.94,4.46-.52,3.56-1.47,7.02-1.9,10.57-.38,2.66-1.94,3.7-4.46,3.98-.57.1-1.14.05-1.71.05-20.29.81-40.63,1.71-60.98,2.42-5.45.24-10.86.05-15.98.05-.57.76-.85,1.04-.95,1.33-2.09,6.73-2.04,6.69-9.81,5.93-9.53-1-19.06-2.23-28.64-2.7-17.96-.84-33.98,2.43-47.67,10.4,0,0-12.38,7.21-23.22,21.09-3.2,4.1-5.21,8.72-5.21,8.72-6.61,12.41-7.06,19.32-10.03,19.54-2.49.19-3.6-4.55-8.59-11.98-5.8-8.66-12.1-13.89-15.57-16.77-3.69-3.06-11.34-9.3-23.16-13.38-8.61-2.97-16.25-3.7-21.56-3.79-12.27-25.39-19.84-45.9-23.46-57.3-4.75-14.95-8.35-32.07-8.72-33.95-.05-.24-.09-.52-.14-.76-.47-2.23-.9-4.46-1.28-6.69v-.05c-.81-4.41-1.47-8.82-2.09-13.28-2.09-15.13-3.18-30.63-3.18-46.32,0-70.36,21.53-135.61,58.37-189.61,1.33-1.94,2.66-3.79,3.98-5.69,1.19-1.66,2.37-3.32,3.6-4.93,3.56,11.43,8.77,24.85,16.55,39.02,10.29,18.87,21.95,33.57,32.24,44.52,1.85,1.99,3.65,3.84,5.41,5.55,20.82-30.25,39.16-61.31,55.38-93.31,4.46-8.87,8.77-17.78,12.85-26.74.14-.24.24-.43.28-.62,4.22-9.2,8.25-18.44,12.04-27.74,5.93-14.37,11.38-28.78,16.5-43.38,1.56-4.6,3.13-9.2,4.6-13.8,9.29-29.07,16.5-58.75,24.04-89.19,1.22.93,3.22,2.47,5.66,4.4,15.3,12.14,26.18,22.83,50.29,47.19,11.01,11.12,16.51,16.69,17.59,17.83,14.98,15.79,28.97,32.29,41.91,49.45.38.47.71,1,1.14,1.47,18.25,24.37,34.04,49.93,45.9,77.29.43,1,1.04,1.99,1.99,3.75,2.18-3.41,4.17-6.87,6.02-10.34,4.93-9.01,8.87-18.11,12.04-27.5,3.37-9.86,6.4-19.82,9.48-29.78.95-3.03,1.9-6.07,2.84-9.06.51.19,1.18.46,1.93.83,1.15.57,1.97,1.12,2.29,1.35,20.35,13.89,25.94,18.3,25.94,18.3,7.35,5.36,14.46,10.91,21.1,16.97,18.44,16.74,33.62,35.37,43.86,56.94,2.94,6.16,5.17,11.38,6.5,14.98,2.8-2.32,5.74-5.03,8.72-8.11,2.85-2.99,5.74-6.31,8.58-10.05,12.28-16.03,17.78-32.24,20.44-43.29.85.85,1.66,1.71,2.47,2.56,27.97,29.82,50.64,64.77,66.43,103.22,16.07,39.31,24.94,82.36,24.94,127.5Z"/>
    </g>
  </g>
</svg>
